<svg width="1324" height="389" viewBox="0 0 1324 389" fill="none" xmlns="http://www.w3.org/2000/svg">
<path d="M0 237.494C190.38 182.34 423.576 196.065 528.8 386.619H528.759L529.301 387.539H446.454L445.057 384.936C403.35 315.056 328.003 272.544 233.657 251.481L159.251 385.698L82.8477 388.46L166.044 240.317C114.093 234.45 58.105 233.767 0 237.494ZM456.583 264.095C422.559 237.586 387.948 218.397 348.993 205.549L326.475 163.941L304.693 123.35L302.065 128.088L268.317 188.467C216.302 182.626 155.675 184.095 81.0068 191.469C124.085 175.618 167.891 164.569 210.685 160.833L301.012 0L456.583 264.095Z" fill="#D4AB41"/>
<path d="M602.741 225.414L593.105 198.054H555.435L545.799 225.414H528.75L565.409 126.488H583.334L619.925 225.414H602.741ZM588.927 184.172L579.56 157.217C579.201 156.049 578.684 154.409 578.01 152.298C577.336 150.141 576.662 147.963 575.989 145.761C575.315 143.515 574.753 141.628 574.304 140.101C573.855 141.943 573.293 144.009 572.619 146.3C571.99 148.547 571.361 150.658 570.732 152.635C570.148 154.612 569.699 156.139 569.385 157.217L559.95 184.172H588.927ZM700.632 126.893V190.641C700.632 197.515 699.172 203.67 696.251 209.106C693.376 214.542 689.018 218.854 683.178 222.044C677.338 225.189 669.993 226.761 661.142 226.761C648.518 226.761 638.904 223.459 632.3 216.855C625.741 210.206 622.462 201.379 622.462 190.372V126.893H638.635V188.957C638.635 197.178 640.567 203.243 644.43 207.151C648.294 211.06 654.067 213.014 661.749 213.014C667.05 213.014 671.363 212.093 674.687 210.251C678.057 208.364 680.528 205.624 682.1 202.03C683.717 198.391 684.526 194.011 684.526 188.889V126.893H700.632ZM750.34 225.414H734.099V140.64H705.257V126.893H779.114V140.64H750.34V225.414ZM872.018 176.018C872.018 183.611 871.052 190.529 869.12 196.774C867.233 202.973 864.38 208.32 860.562 212.812C856.743 217.26 851.958 220.696 846.208 223.122C840.458 225.548 833.719 226.761 825.992 226.761C818.13 226.761 811.301 225.548 805.506 223.122C799.755 220.696 794.971 217.237 791.152 212.745C787.379 208.252 784.548 202.884 782.661 196.639C780.775 190.394 779.831 183.476 779.831 175.884C779.831 165.73 781.493 156.88 784.818 149.333C788.187 141.74 793.286 135.855 800.115 131.677C806.988 127.454 815.659 125.343 826.126 125.343C836.369 125.343 844.883 127.432 851.666 131.61C858.45 135.788 863.527 141.673 866.896 149.265C870.31 156.813 872.018 165.73 872.018 176.018ZM796.813 176.018C796.813 183.611 797.846 190.192 799.913 195.763C801.979 201.289 805.146 205.557 809.414 208.567C813.727 211.532 819.253 213.014 825.992 213.014C832.775 213.014 838.301 211.532 842.569 208.567C846.837 205.557 849.982 201.289 852.003 195.763C854.025 190.192 855.036 183.611 855.036 176.018C855.036 164.473 852.722 155.443 848.095 148.928C843.513 142.369 836.19 139.09 826.126 139.09C819.388 139.09 813.839 140.572 809.482 143.537C805.169 146.503 801.979 150.748 799.913 156.274C797.846 161.755 796.813 168.336 796.813 176.018ZM911.213 126.893C919.704 126.893 926.712 127.926 932.238 129.993C937.809 132.059 941.942 135.204 944.637 139.427C947.378 143.65 948.748 149.018 948.748 155.532C948.748 160.384 947.849 164.518 946.052 167.932C944.255 171.346 941.897 174.176 938.977 176.423C936.057 178.669 932.934 180.466 929.61 181.814L957.576 225.414H939.314L915.526 185.924H899.69V225.414H883.517V126.893H911.213ZM910.135 140.37H899.69V172.582H910.876C918.379 172.582 923.814 171.189 927.184 168.404C930.598 165.618 932.305 161.508 932.305 156.072C932.305 150.366 930.486 146.323 926.847 143.942C923.253 141.561 917.682 140.37 910.135 140.37ZM961.999 225.414V126.893H978.172V225.414H961.999ZM1074.51 175.21C1074.51 186.306 1072.45 195.583 1068.31 203.041C1064.18 210.453 1058.18 216.047 1050.32 219.82C1042.46 223.549 1032.98 225.414 1021.88 225.414H994.523V126.893H1024.85C1035.05 126.893 1043.85 128.735 1051.26 132.418C1058.68 136.057 1064.4 141.471 1068.45 148.659C1072.49 155.802 1074.51 164.652 1074.51 175.21ZM1057.67 175.681C1057.67 167.595 1056.39 160.946 1053.82 155.735C1051.31 150.523 1047.58 146.66 1042.64 144.144C1037.74 141.583 1031.7 140.303 1024.51 140.303H1010.7V211.869H1022.15C1034.06 211.869 1042.95 208.836 1048.84 202.771C1054.72 196.706 1057.67 187.676 1057.67 175.681ZM1147.13 225.414L1137.5 198.054H1099.83L1090.19 225.414H1073.14L1109.8 126.488H1127.72L1164.32 225.414H1147.13ZM1133.32 184.172L1123.95 157.217C1123.59 156.049 1123.07 154.409 1122.4 152.298C1121.73 150.141 1121.05 147.963 1120.38 145.761C1119.71 143.515 1119.14 141.628 1118.69 140.101C1118.25 141.943 1117.68 144.009 1117.01 146.3C1116.38 148.547 1115.75 150.658 1115.12 152.635C1114.54 154.612 1114.09 156.139 1113.78 157.217L1104.34 184.172H1133.32ZM1247.65 175.21C1247.65 186.306 1245.58 195.583 1241.45 203.041C1237.32 210.453 1231.32 216.047 1223.46 219.82C1215.6 223.549 1206.12 225.414 1195.02 225.414H1167.66V126.893H1197.99C1208.18 126.893 1216.99 128.735 1224.4 132.418C1231.81 136.057 1237.54 141.471 1241.59 148.659C1245.63 155.802 1247.65 164.652 1247.65 175.21ZM1230.8 175.681C1230.8 167.595 1229.52 160.946 1226.96 155.735C1224.45 150.523 1220.72 146.66 1215.78 144.144C1210.88 141.583 1204.84 140.303 1197.65 140.303H1183.83V211.869H1195.29C1207.2 211.869 1216.09 208.836 1221.98 202.771C1227.86 196.706 1230.8 187.676 1230.8 175.681ZM1315.01 225.414H1259.22V126.893H1315.01V140.505H1275.39V167.258H1312.52V180.803H1275.39V211.734H1315.01V225.414Z" fill="white"/>
<path d="M725.001 293.188C725.001 299.892 723.811 305.514 721.43 310.056C719.077 314.598 715.575 318.018 710.924 320.316C706.3 322.615 700.568 323.764 693.728 323.764H679.363V263.762H695.615C702.018 263.762 707.394 264.884 711.745 267.127C716.095 269.371 719.392 272.681 721.635 277.059C723.879 281.409 725.001 286.786 725.001 293.188ZM720.568 293.352C720.568 287.634 719.638 282.86 717.778 279.029C715.917 275.199 713.072 272.326 709.241 270.41C705.411 268.468 700.554 267.497 694.672 267.497H683.59V320.029H693.522C702.579 320.029 709.35 317.813 713.838 313.38C718.325 308.921 720.568 302.245 720.568 293.352ZM765.617 323.764H732.825V263.762H765.617V267.579H737.052V290.315H764.016V294.132H737.052V319.947H765.617V323.764ZM806.437 308.291C806.437 311.875 805.535 314.885 803.729 317.32C801.923 319.728 799.474 321.547 796.382 322.779C793.291 323.983 789.789 324.584 785.876 324.584C783.441 324.584 781.225 324.461 779.227 324.215C777.257 323.996 775.465 323.695 773.851 323.312C772.264 322.929 770.814 322.491 769.501 321.999V317.772C771.635 318.593 774.097 319.318 776.888 319.947C779.706 320.549 782.771 320.85 786.081 320.85C789.2 320.85 791.964 320.398 794.371 319.495C796.807 318.593 798.722 317.224 800.117 315.391C801.513 313.558 802.21 311.246 802.21 308.455C802.21 305.993 801.622 303.982 800.446 302.422C799.296 300.835 797.559 299.481 795.233 298.359C792.908 297.21 789.98 296.047 786.451 294.871C783.988 294.023 781.745 293.133 779.72 292.203C777.723 291.246 776.012 290.151 774.59 288.92C773.167 287.661 772.073 286.156 771.306 284.405C770.568 282.627 770.198 280.534 770.198 278.126C770.198 274.816 771.033 272.038 772.702 269.795C774.398 267.524 776.683 265.814 779.556 264.665C782.456 263.488 785.712 262.9 789.323 262.9C792.196 262.9 794.919 263.174 797.491 263.721C800.09 264.241 802.593 265.034 805.001 266.101L803.524 269.754C801.116 268.714 798.708 267.948 796.3 267.455C793.893 266.963 791.512 266.717 789.159 266.717C786.341 266.717 783.824 267.141 781.608 267.989C779.419 268.81 777.681 270.055 776.396 271.724C775.11 273.393 774.467 275.5 774.467 278.044C774.467 280.671 775.055 282.791 776.231 284.405C777.435 286.02 779.132 287.36 781.32 288.427C783.537 289.494 786.15 290.534 789.159 291.547C792.716 292.75 795.781 294.023 798.352 295.363C800.924 296.677 802.908 298.346 804.303 300.37C805.726 302.395 806.437 305.035 806.437 308.291ZM828.133 263.762C835.275 263.762 840.624 265.13 844.18 267.866C847.737 270.602 849.516 274.857 849.516 280.63C849.516 283.585 849.037 286.211 848.079 288.51C847.149 290.78 845.74 292.696 843.852 294.255C841.964 295.815 839.597 296.991 836.752 297.785C833.934 298.578 830.637 298.975 826.861 298.975H817.627V323.764H813.4V263.762H828.133ZM827.682 267.497H817.627V295.24H826.451C830.336 295.24 833.674 294.802 836.465 293.927C839.255 293.024 841.403 291.519 842.908 289.412C844.413 287.306 845.165 284.433 845.165 280.794C845.165 276.17 843.743 272.805 840.897 270.698C838.052 268.564 833.647 267.497 827.682 267.497ZM894.236 323.764L886.068 302.546H860.869L852.538 323.764H848.229L871.827 263.557H875.685L898.668 323.764H894.236ZM884.714 298.729L876.424 276.238C876.205 275.664 875.931 274.925 875.603 274.022C875.302 273.119 874.974 272.162 874.618 271.149C874.29 270.137 873.961 269.179 873.633 268.276C873.359 269.234 873.058 270.192 872.73 271.149C872.402 272.107 872.087 273.037 871.786 273.94C871.485 274.816 871.198 275.609 870.924 276.32L862.306 298.729H884.714ZM926.766 266.717C922.936 266.717 919.516 267.373 916.506 268.687C913.496 269.973 910.952 271.806 908.872 274.186C906.793 276.567 905.206 279.412 904.112 282.723C903.017 286.006 902.47 289.631 902.47 293.599C902.47 299.071 903.332 303.859 905.056 307.963C906.779 312.04 909.365 315.2 912.812 317.443C916.287 319.687 920.61 320.809 925.781 320.809C928.791 320.809 931.527 320.59 933.989 320.152C936.452 319.687 938.737 319.099 940.843 318.387V322.081C938.846 322.82 936.589 323.422 934.072 323.887C931.582 324.352 928.681 324.584 925.371 324.584C919.379 324.584 914.345 323.299 910.268 320.727C906.218 318.155 903.168 314.543 901.116 309.892C899.064 305.241 898.038 299.809 898.038 293.599C898.038 289.139 898.681 285.048 899.967 281.327C901.252 277.579 903.127 274.337 905.589 271.601C908.079 268.837 911.102 266.703 914.659 265.198C918.216 263.666 922.265 262.9 926.807 262.9C929.68 262.9 932.416 263.187 935.015 263.762C937.642 264.309 940.105 265.116 942.403 266.183L940.761 269.877C938.545 268.782 936.274 267.989 933.948 267.497C931.623 266.977 929.229 266.717 926.766 266.717ZM991.104 323.764H986.876V294.214H951.827V323.764H947.6V263.762H951.827V290.356H986.876V263.762H991.104V323.764ZM1039.76 323.764L1031.6 302.546H1006.4L998.066 323.764H993.757L1017.36 263.557H1021.21L1044.2 323.764H1039.76ZM1030.24 298.729L1021.95 276.238C1021.73 275.664 1021.46 274.925 1021.13 274.022C1020.83 273.119 1020.5 272.162 1020.15 271.149C1019.82 270.137 1019.49 269.179 1019.16 268.276C1018.89 269.234 1018.59 270.192 1018.26 271.149C1017.93 272.107 1017.62 273.037 1017.31 273.94C1017.01 274.816 1016.73 275.609 1016.45 276.32L1007.83 298.729H1030.24ZM1090.48 323.764H1086.17L1050.71 270.698H1050.5C1050.56 272.175 1050.6 273.68 1050.62 275.212C1050.68 276.717 1050.72 278.277 1050.75 279.891C1050.8 281.478 1050.83 283.119 1050.83 284.816V323.764H1046.81V263.762H1051.16L1086.49 316.664H1086.7C1086.67 315.46 1086.63 314.064 1086.58 312.477C1086.55 310.89 1086.51 309.263 1086.45 307.594C1086.43 305.925 1086.41 304.351 1086.41 302.874V263.762H1090.48V323.764ZM1117.26 323.764H1112.99V267.579H1093.54V263.762H1136.71V267.579H1117.26V323.764ZM1172.57 323.764H1139.78V263.762H1172.57V267.579H1144V290.315H1170.97V294.132H1144V319.947H1172.57V323.764Z" fill="white"/>
</svg>
